<svg version="1.2" xmlns="http://www.w3.org/2000/svg" viewBox="0 0 776 554" width="776" height="554">
	<title>logobongo_splash_ok</title>
	<defs>
		<linearGradient id="g1" x2="1" gradientUnits="userSpaceOnUse" gradientTransform="matrix(0,-49.438,38.701,0,204.369,395.986)">
			<stop offset=".002" stop-color="#f2e500"/>
			<stop offset="1" stop-color="#fff97a"/>
		</linearGradient>
		<linearGradient id="g2" x2="1" gradientUnits="userSpaceOnUse" gradientTransform="matrix(0,-49.438,35.681,0,254.982,395.986)">
			<stop offset=".002" stop-color="#f2e500"/>
			<stop offset="1" stop-color="#fff97a"/>
		</linearGradient>
		<linearGradient id="g3" x2="1" gradientUnits="userSpaceOnUse" gradientTransform="matrix(0,-49.438,30.558,0,293.565,395.986)">
			<stop offset=".002" stop-color="#f2e500"/>
			<stop offset="1" stop-color="#fff97a"/>
		</linearGradient>
		<linearGradient id="g4" x2="1" gradientUnits="userSpaceOnUse" gradientTransform="matrix(0,-49.438,38.236,0,357.26,395.986)">
			<stop offset=".002" stop-color="#f2e500"/>
			<stop offset="1" stop-color="#fff97a"/>
		</linearGradient>
		<linearGradient id="g5" x2="1" gradientUnits="userSpaceOnUse" gradientTransform="matrix(0,-49.438,38.701,0,418.995,395.986)">
			<stop offset=".002" stop-color="#f2e500"/>
			<stop offset="1" stop-color="#fff97a"/>
		</linearGradient>
		<linearGradient id="g6" x2="1" gradientUnits="userSpaceOnUse" gradientTransform="matrix(0,-49.438,40.951,0,479.411,395.986)">
			<stop offset=".002" stop-color="#f2e500"/>
			<stop offset="1" stop-color="#fff97a"/>
		</linearGradient>
		<linearGradient id="g7" x2="1" gradientUnits="userSpaceOnUse" gradientTransform="matrix(0,-49.438,38.701,0,1347.063,365.594)">
			<stop offset=".002" stop-color="#f2e500"/>
			<stop offset="1" stop-color="#fff97a"/>
		</linearGradient>
		<linearGradient id="g8" x2="1" gradientUnits="userSpaceOnUse" gradientTransform="matrix(0,-49.438,40.951,0,1418.778,445.315)">
			<stop offset=".002" stop-color="#f2e500"/>
			<stop offset="1" stop-color="#fff97a"/>
		</linearGradient>
	</defs>
	<style>
		.s0 { fill: #29abe2 } 
		.s1 { fill: #00d9ea } 
		.s2 { opacity: .5;fill: #ffffff } 
		.s3 { fill: #00e7ed } 
		.s4 { fill: #000000 } 
		.s5 { fill: #cd5fd3 } 
		.s6 { fill: #f2e500 } 
		.s7 { fill: #ff36a4 } 
		.s8 { fill: url(#g1) } 
		.s9 { fill: url(#g2) } 
		.s10 { fill: url(#g3) } 
		.s11 { fill: url(#g4) } 
		.s12 { fill: url(#g5) } 
		.s13 { fill: url(#g6) } 
		.s14 { fill: #ffffff } 
		.s15 { fill: #f2f2f2 } 
		.s16 { opacity: .5;fill: none;stroke: #ffffff;stroke-linecap: round;stroke-linejoin: round;stroke-width: 4 } 
		.s17 { fill: #e52e9b } 
		.s18 { fill: #e0e0e0 } 
		.s19 { fill: url(#g7) } 
		.s20 { fill: url(#g8) } 
	</style>
	<g id="Capa 1">
		<g id="&lt;Group&gt;">
			<g id="&lt;Group&gt;">
				<g id="&lt;Group&gt;">
					<path id="&lt;Path&gt;" class="s0" d="m658.5 330.2q-0.8 0-1.7-0.1c-9.9-0.9-17.3-10-16.3-20.1 0.9-9.5 8.7-16.7 18.1-16.7q0.9 0 1.7 0.1c10 0.9 17.3 9.9 16.4 20.1-0.9 9.5-8.7 16.7-18.2 16.7z"/>
					<path id="&lt;Path&gt;" class="s1" d="m660.3 322.1c-7.2-0.7-12.5-7.2-11.8-14.6 0.7-7.4 7.1-12.9 14.4-12.2 7.2 0.7 12.5 7.3 11.8 14.7-0.7 7.4-7.2 12.8-14.4 12.1z"/>
					<path id="&lt;Path&gt;" class="s1" d="m660.3 322.1c-7.2-0.7-12.5-7.2-11.8-14.6 0.7-7.4 7.1-12.9 14.4-12.2 7.2 0.7 12.5 7.3 11.8 14.7-0.7 7.4-7.2 12.8-14.4 12.1z"/>
					<path id="&lt;Path&gt;" class="s2" d="m664.9 301.7c0 1.9-1.5 3.4-3.3 3.4-1.9 0-3.4-1.5-3.4-3.4 0-1.8 1.5-3.3 3.4-3.3 1.8 0 3.3 1.5 3.3 3.3z"/>
				</g>
				<g id="&lt;Group&gt;">
					<path id="&lt;Path&gt;" class="s0" d="m543.7 454.7c-5 0-9.4-3.4-10.7-8.2-0.8-2.9-0.4-5.9 1.1-8.5 1.5-2.5 3.9-4.4 6.7-5.2q1.5-0.4 3-0.4c5.1 0 9.5 3.4 10.8 8.2 0.8 2.9 0.4 5.9-1.1 8.5-1.5 2.5-3.9 4.4-6.8 5.2q-1.4 0.4-3 0.4z"/>
					<path id="&lt;Path&gt;" class="s1" d="m552.8 438.9c0.9 3.3-1.1 6.6-4.4 7.6-3.3 0.9-6.7-1-7.6-4.3-0.9-3.3 1.1-6.7 4.4-7.6 3.3-0.9 6.7 1 7.6 4.3z"/>
					<path id="&lt;Path&gt;" class="s2" d="m550.2 437.8c0 0.6-0.5 1.1-1.1 1.1-0.7 0-1.2-0.5-1.2-1.1 0-0.6 0.5-1.1 1.2-1.1 0.6 0 1.1 0.5 1.1 1.1z"/>
				</g>
				<g id="&lt;Group&gt;">
					<path id="&lt;Path&gt;" class="s2" d="m123.1 159.8c-6.3-2.6-11.4 5.5-6.4 10 14.4 12.8 33.4 25.7 47.1 18.8q0.5-0.2 1-0.4c5-2 5.1-9 0.1-11.1z"/>
					<path id="&lt;Path&gt;" class="s2" d="m135.3 176.1c-1.9-0.8-3.5 1.6-1.9 3 4.4 4 10.2 7.9 14.4 5.8q0.2 0 0.3-0.1c1.6-0.6 1.6-2.8 0.1-3.4z"/>
				</g>
				<g id="&lt;Group&gt;">
					<path id="&lt;Path&gt;" class="s0" d="m406.4 522.3c-4.7 0-9.3-1-13.6-2.8-24.4-10.4-23.2-40.8-22.2-67.6 1.3-33.5 0.9-54.1-23.7-55.2q-1.2 0-2.4 0c-23.9 0-35.5 15.6-46.7 30.8-9.4 12.8-18.3 24.9-33.5 24.9q0 0 0 0c-4.6 0-9.3-1.1-14.4-3.4-4-1.7-9.2-6-11.4-16.6-5.1-24.9 9.9-74.4 28.8-94.5 4.6-4.9 6-9.4 4.3-13.3-2.7-6.4-13.4-11.1-25.3-11.1-6.6 0-13 1.5-18.5 4.2-25.9 12.6-41.3 17.8-53.1 17.8-13.2 0-22.2-6.9-27.5-21.1-3.2-8.6-1.4-19.5 5.4-31.4 10.8-19 30.9-35.5 46.8-38.3 9.9-1.8 20.3-6.9 20-13.7-0.2-5.9-10-13.2-30.9-15.1q-0.1 0-0.2 0c-34.8-4.3-72.4-11.6-86.8-33.7-6.8-10.4-8-23.3-3.5-38.3 6.4-21.1 25.1-31.8 55.8-31.8 34.1 0 82.6 12.9 148.3 39.5 1.7 0.5 18 5.9 29.9 5.9 6.5 0 8.3-1.7 8.7-2.1 0.7-0.9 0.6-2.5 0.3-3.7-1.3-6.1-7.9-16.7-15-27.9-4.7-7.6-9.6-15.4-13.9-23.4-7-13-10.7-23.1-11.5-31.8-1-11.8 3.5-21.1 13.1-26.8 5.2-3.1 10.7-4.6 16.4-4.6 16.4 0 34 13.1 52.4 38.9 8.9 12.3 17.8 27.4 27.4 46.1 5.7 11.1 14 17.4 22.9 17.4 10.9 0 23.7-10.1 26.1-32.3 0-0.7 0.1-1.5 0.3-2.4 1.8-12.6 8.7-24.1 19.4-32.6 9.4-7.4 21-11.8 31.2-11.8 11.3 0 19.7 5.5 22.3 14.9 2.3 8.1-4.6 23-11.9 37.6-0.7 1.5-1.4 2.8-1.8 3.8-2.2 4.6-4.9 8.9-7.5 13.1-4.9 8.1-9.6 15.7-8.6 22 1 6.4 10.4 11 22.4 11 14.9 0 29.9-6.6 40.9-18.2 8.3-8.6 21.5-20.9 37.7-30.6 16.6-10.1 32.6-15.2 47.5-15.2 13.9 0 26.7 4.5 37.9 13.4 20 15.8 28.3 38.7 22.2 61.5-3.3 12.6-10.8 24-21.6 33-11.3 9.4-25.8 15.7-41.9 18-2.1 0.4-5.6 0.9-9.1 1.4 6.6 3.3 13.4 8.4 13.9 17.3 0.8 13.1-7.3 22.2-15.9 31.9-7.1 8-14.4 16.2-17.5 27.4-3.8 14-19.8 14-25 14-5.9 0-12.5-0.7-18.8-1.4-6.2-0.7-12.5-1.4-18-1.4-12.8 0-15.3 3.8-16.2 7.9-2.1 10.5 5 19.1 13.2 29.1 10.6 12.9 22.6 27.5 12.3 48-4 8.1-13.4 12.5-26.5 12.5-18.2 0-41.6-8.1-62.4-21.6-12.8-8.2-23-12.4-30.6-12.4-9.1 0-13.8 6.2-19.1 13.3l-0.4 0.5c-6.5 8.6-0.6 23.7 6.2 41.1 9.2 23.4 20.6 52.6 1.6 76-7.1 8.7-17.8 13.9-28.7 13.9z"/>
					<path id="&lt;Path&gt;" class="s1" d="m650.2 240.8c1.2 20.8-26 31.7-33.2 57.7-7.2 26-72.4-9-78.1 19.4-5.7 28.4 42 43.7 25.9 75.9-8.3 16.8-47.7 11-81.7-11.1-37.4-24.2-47.2-10.2-56.8 2.6-18.5 24.6 38.6 79.1 7.9 117-8.8 10.8-23.6 15.1-36.5 9.6-45-19.3 10.5-120.7-47.6-123.2-55.7-2.4-53.6 71-95.2 52.7-21.3-9.3-3-79.6 19-103.1 22-23.6-17.6-41.6-45.3-28.1-44.9 21.9-64.5 24.3-73.8-0.6-7.9-21.2 25.1-58.8 48.5-63 33.5-6.1 34.3-34.5-11.4-38.6-53.9-6.7-99.9-19.6-86.1-65.6 14.9-49.6 105.8-26.3 197.6 10.9 0 0 50.4 17.1 45.5-5.6-2.4-11.3-18.3-32.1-29.4-52.6-11.3-20.9-17.7-41.6-0.2-52 21.5-12.8 44 7.5 62.2 32.9 11 15.3 20.4 32.6 27 45.5 17.5 34.2 54.2 22.3 58.3-16.7q0.2-1.1 0.3-2.2c5.4-36.9 56.5-52.6 63.2-28.9 2.3 8.2-10 30.7-13.5 37.9-6.5 13.8-18.3 26.2-16.5 38.1 2.9 18.1 44.7 23.9 71.9-4.5 27.3-28.5 76.8-63.3 116.4-32 42.9 33.9 20.4 94.9-38.9 103.7-53.1 7.9-0.7 3.1 0.5 23.9z"/>
					<path id="&lt;Path&gt;" class="s2" d="m254.2 252c8.1-7.3 14.8-22 2.8-39.2-12-17.2-35.7-51.1 10.3-43.4 46 7.6 100.3 21 106.2 2.8 6-18.3-9-58.7 13-54.7 22 4 22.6 41 45.9 41.7 23.3 0.6 37.4-45.6 51.4-44.6 14 1-11.8 60.4 12.1 67.7 24 7.3 73.2-12.6 81.4 3.9 8.2 16.5-78.3 46.2-61.7 63.9 16.5 17.6 74.4 39.5 27.1 38-47.4-1.6-49.7 23-38.5 41.8 24.5 40-13.3 40-21.5 27.1-17-28.4-81.1-33.6-75.6-5.5 7 36-21.1 67-46-0.1-12-32.3-30.5-16.6-47.2 19.9-16.7 36.5-45.3 24.9-43.6 6.7 1.7-18.2 35.5-32.8 33.6-59.1-1.8-26.4-11-47.2-49.1-51.3 0 0-16-1.4-0.6-15.6z"/>
				</g>
				<g id="&lt;Group&gt;">
					<path id="&lt;Path&gt;" class="s2" d="m588 294.1c-3-0.2-4 3.9-1.2 5.1 7.9 3.4 17.8 6.1 22.6 1.2q0.2-0.1 0.4-0.3c1.8-1.6 0.8-4.5-1.6-4.7z"/>
					<path id="&lt;Path&gt;" class="s2" d="m595.6 299.2c-1-0.1-1.3 1.2-0.4 1.6 2.4 1 5.4 1.9 6.9 0.4q0.1-0.1 0.1-0.1c0.6-0.5 0.3-1.4-0.5-1.5z"/>
				</g>
				<g id="&lt;Group&gt;">
					<path id="&lt;Path&gt;" class="s2" d="m192.6 270.7c2.8-2.5 0-7.1-3.6-5.7-10.1 4.1-21.4 10.7-21.3 19.4q0 0.4 0 0.7c-0.2 3 3.4 4.8 5.7 2.7z"/>
					<path id="&lt;Path&gt;" class="s2" d="m181.2 273c0.9-0.8 0-2.2-1.1-1.8-3.1 1.3-6.6 3.3-6.5 6q0 0.1 0 0.2c-0.1 0.9 1 1.4 1.7 0.8z"/>
				</g>
				<g id="&lt;Group&gt;">
					<path id="&lt;Path&gt;" class="s2" d="m350.3 56c3.8 0.5 5.5-4.6 2.1-6.4-9.8-5-22.1-9.4-28.6-3.6q-0.3 0.2-0.5 0.3c-2.5 1.9-1.5 5.7 1.5 6.2z"/>
					<path id="&lt;Path&gt;" class="s2" d="m341.2 48.8c1.2 0.2 1.7-1.4 0.7-2-3-1.5-6.8-2.8-8.8-1.1q-0.1 0.1-0.2 0.1c-0.7 0.6-0.4 1.8 0.5 1.9z"/>
				</g>
				<g id="&lt;Group&gt;">
					<path id="&lt;Path&gt;" class="s2" d="m266.7 395.8c0.7-4.8-5.9-6.9-8.2-2.6-6.4 12.4-11.9 28.1-4.6 36.4q0.2 0.3 0.5 0.7c2.3 3.1 7.2 1.8 7.8-2z"/>
					<path id="&lt;Path&gt;" class="s2" d="m257.5 407.4c0.2-1.5-1.8-2.2-2.5-0.8-2 3.8-3.7 8.6-1.4 11.1q0 0.1 0.1 0.2c0.7 1 2.2 0.6 2.4-0.6z"/>
				</g>
				<g id="&lt;Group&gt;">
					<path id="&lt;Path&gt;" class="s2" d="m394.4 468.7c-1.7-4.5-8.5-3.2-8.4 1.7 0.5 14 3.3 30.4 13.7 34.1q0.4 0.2 0.8 0.3c3.5 1.6 7.2-1.9 5.8-5.5z"/>
					<path id="&lt;Path&gt;" class="s2" d="m392 483.3c-0.5-1.4-2.6-1-2.5 0.5 0.1 4.3 1 9.3 4.2 10.5q0.1 0 0.2 0.1c1.1 0.5 2.2-0.6 1.8-1.7z"/>
				</g>
				<g id="&lt;Group&gt;">
					<path id="&lt;Path&gt;" class="s2" d="m512.6 378c-4.8-0.8-7.1 5.7-2.8 8.1 12.2 6.8 27.7 12.8 36.3 5.7q0.3-0.2 0.6-0.4c3.2-2.3 2.1-7.2-1.7-7.9z"/>
					<path id="&lt;Path&gt;" class="s2" d="m523.9 387.6c-1.5-0.3-2.2 1.7-0.9 2.4 3.8 2.1 8.6 4 11.2 1.8q0.1-0.1 0.2-0.1c1-0.7 0.6-2.3-0.6-2.5z"/>
				</g>
				<g id="&lt;Group&gt;">
					<path id="&lt;Path&gt;" class="s2" d="m672.6 128.8c8-2 7-13.7-1.2-14.4-23.6-2-51.7-0.5-60 16.4q-0.4 0.6-0.7 1.1c-3.4 5.7 1.7 12.6 8.1 10.9z"/>
					<path id="&lt;Path&gt;" class="s2" d="m648.5 122c2.5-0.7 2.2-4.3-0.3-4.5-7.3-0.6-15.9-0.1-18.5 5.1q-0.1 0.1-0.2 0.3c-1 1.8 0.6 3.9 2.5 3.4z"/>
				</g>
				<g id="&lt;Group&gt;">
					<path id="&lt;Path&gt;" class="s0" d="m592.4 466c-10.2 0-19.9-5.5-25.3-14.4-8.4-13.8-4.3-31.8 9.2-40.1 4.4-2.7 9.5-4.1 14.7-4.1 10.1 0 19.8 5.5 25.2 14.3 4.1 6.7 5.4 14.5 3.7 22.1-1.7 7.6-6.3 14-12.9 18-4.4 2.7-9.4 4.2-14.6 4.2z"/>
					<path id="&lt;Path&gt;" class="s3" d="m614.9 421.3c7.1 11.5 3.7 26.4-7.5 33.3-11.2 6.8-25.9 3-33-8.6-7-11.5-3.7-26.4 7.5-33.2 11.2-6.9 26-3.1 33 8.5z"/>
					<path id="&lt;Path&gt;" class="s2" d="m611.7 423.8c0 3.7-3 6.7-6.7 6.7-3.7 0-6.7-3-6.7-6.7 0-3.7 3-6.7 6.7-6.7 3.7 0 6.7 3 6.7 6.7z"/>
				</g>
				<g id="&lt;Group&gt;">
					<path id="&lt;Path&gt;" class="s0" d="m220.9 512.6c-3.8 0-7.5-0.7-11.1-2.1-7.4-2.9-13.3-8.5-16.5-15.8-3.3-7.2-3.5-15.3-0.6-22.6 4.5-11.3 15.3-18.6 27.6-18.6 3.8 0 7.5 0.7 11.1 2.1 15.4 6 23 23.3 17.1 38.4-4.5 11.3-15.3 18.6-27.6 18.6z"/>
					<path id="&lt;Path&gt;" class="s1" d="m246.8 489.2c-4.9 12.6-19.3 18.7-32.2 13.6-12.8-5-19.2-19.3-14.2-31.9 4.9-12.6 19.4-18.7 32.2-13.7 12.8 5.1 19.2 19.4 14.2 32z"/>
					<path id="&lt;Path&gt;" class="s2" d="m237.8 469.4c0 3.7-3.1 6.7-6.8 6.7-3.7 0-6.7-3-6.7-6.7 0-3.7 3-6.7 6.7-6.7 3.7 0 6.8 3 6.8 6.7z"/>
				</g>
				<g id="&lt;Group&gt;">
					<path id="&lt;Path&gt;" class="s0" d="m180.5 371.3c-4 0-7.8-1.4-10.7-4.1-3.3-2.9-5.2-6.9-5.4-11.3-0.2-4.3 1.3-8.5 4.3-11.7 3.1-3.5 7.5-5.5 12.2-5.5 4 0 7.8 1.5 10.8 4.2 3.2 2.9 5.1 6.9 5.3 11.2 0.2 4.4-1.3 8.5-4.2 11.8-3.2 3.4-7.6 5.4-12.3 5.4z"/>
					<path id="&lt;Path&gt;" class="s1" d="m192 359.5c-4.2 4.7-11.3 5.1-15.9 1-4.6-4.1-4.9-11.3-0.7-16 4.2-4.6 11.3-5.1 15.9-0.9 4.6 4.1 5 11.3 0.7 15.9z"/>
					<path id="&lt;Path&gt;" class="s1" d="m192 359.5c-4.2 4.7-11.3 5.1-15.9 1-4.6-4.1-4.9-11.3-0.7-16 4.2-4.6 11.3-5.1 15.9-0.9 4.6 4.1 5 11.3 0.7 15.9z"/>
					<path id="&lt;Path&gt;" class="s2" d="m191.1 348c0 1.9-1.5 3.4-3.4 3.4-1.8 0-3.3-1.5-3.3-3.4 0-1.8 1.5-3.3 3.3-3.3 1.9 0 3.4 1.5 3.4 3.3z"/>
				</g>
				<g id="&lt;Group&gt;">
					<path id="&lt;Path&gt;" class="s0" d="m462.7 445c-8.1 0-15.3-5.5-17.5-13.4-2.6-9.7 3-19.7 12.7-22.3q2.3-0.7 4.8-0.7c8.1 0 15.3 5.5 17.5 13.4 2.6 9.7-3.1 19.7-12.7 22.3q-2.4 0.7-4.8 0.7z"/>
					<path id="&lt;Path&gt;" class="s1" d="m478.3 420.3c2 7-2.1 14.3-9.1 16.2-7 1.9-14.3-2.2-16.2-9.2-1.9-7 2.2-14.3 9.2-16.2 7-1.9 14.2 2.2 16.1 9.2z"/>
					<path id="&lt;Path&gt;" class="s2" d="m471.7 417.1c0 1.8-1.5 3.3-3.4 3.3-1.8 0-3.3-1.5-3.3-3.3 0-1.9 1.5-3.4 3.3-3.4 1.9 0 3.4 1.5 3.4 3.4z"/>
				</g>
				<g id="&lt;Group&gt;">
					<path id="&lt;Path&gt;" class="s0" d="m445.4 59.2c-6.1 0-11.5-4.2-13.1-10.1-2-7.3 2.2-14.9 9.5-16.9q1.8-0.5 3.6-0.5c6.1 0 11.5 4.2 13.2 10.1 0.9 3.6 0.5 7.3-1.3 10.4-1.8 3.2-4.7 5.5-8.3 6.5q-1.7 0.5-3.6 0.5z"/>
					<path id="&lt;Path&gt;" class="s1" d="m456.7 40.2c1.3 4.6-1.4 9.4-6 10.6-4.6 1.3-9.4-1.4-10.6-6.1-1.3-4.6 1.4-9.4 6-10.7 4.6-1.2 9.4 1.5 10.6 6.2z"/>
					<path id="&lt;Path&gt;" class="s2" d="m453.4 37.9c0 0.7-0.5 1.2-1.2 1.2-0.6 0-1.1-0.5-1.1-1.2 0-0.6 0.5-1.1 1.1-1.1 0.7 0 1.2 0.5 1.2 1.1z"/>
				</g>
			</g>
			<g id="&lt;Group&gt;">
				<g id="&lt;Group&gt;">
					<g id="&lt;Group&gt;">
						<path id="&lt;Path&gt;" class="s4" d="m220.1 189.4c-32.6 0-59.5-24.6-62.4-57.1-1.5-16.7 3.5-32.9 14.2-45.8 10.8-12.9 25.9-20.8 42.5-22.3q2.9-0.3 5.8-0.3c32.6 0 59.4 24.5 62.4 57 3.2 34.5-22.3 65.1-56.7 68.2q-2.9 0.3-5.8 0.3z"/>
					</g>
					<g id="&lt;Group&gt;">
						<path id="&lt;Path&gt;" class="s4" d="m329.4 184.1c-30.1 0-54.8-22.6-57.6-52.6-1.4-15.3 3.3-30.4 13.2-42.2 9.9-11.9 23.8-19.2 39.2-20.6q2.6-0.3 5.3-0.3c30.1 0 54.8 22.6 57.6 52.6 1.4 15.4-3.3 30.4-13.2 42.3-9.9 11.9-23.8 19.2-39.2 20.6q-2.7 0.2-5.3 0.2z"/>
					</g>
					<g id="&lt;Group&gt;">
						<path id="&lt;Path&gt;" class="s4" d="m542.2 176.3c-32.6 0-59.4-24.5-62.4-57-1.5-16.7 3.5-32.9 14.3-45.8 10.7-12.9 25.8-20.8 42.5-22.3q2.8-0.3 5.7-0.3c32.6 0 59.5 24.5 62.4 57 3.2 34.5-22.3 65-56.7 68.2q-2.9 0.2-5.8 0.2z"/>
					</g>
					<g id="&lt;Group&gt;">
						<path id="&lt;Path&gt;" class="s4" d="m433.4 183.3c-30.1 0-54.9-22.7-57.6-52.6-1.4-15.4 3.3-30.4 13.2-42.3 9.9-11.9 23.8-19.2 39.2-20.6q2.6-0.2 5.3-0.2c30.1 0 54.8 22.6 57.5 52.5 1.4 15.4-3.2 30.4-13.1 42.3-9.9 11.9-23.8 19.2-39.2 20.6q-2.7 0.3-5.3 0.3z"/>
					</g>
					<g id="&lt;Group&gt;">
						<g id="&lt;Group&gt;">
							<path id="&lt;Path&gt;" class="s5" d="m278.1 118.5c2.7 29.5-19 55.6-48.6 58.3-29.5 2.7-55.6-19.1-58.3-48.6-2.7-29.5 19.1-55.6 48.6-58.3 29.5-2.7 55.6 19.1 58.3 48.6z"/>
							<path id="&lt;Path&gt;" class="s5" d="m382.5 118.6c2.5 26.8-17.3 50.5-44.1 53-26.8 2.4-50.6-17.3-53-44.2-2.5-26.8 17.3-50.5 44.1-53 26.9-2.4 50.6 17.3 53 44.2z"/>
							<path id="&lt;Path&gt;" class="s5" d="m486.5 117.7c2.5 26.8-17.3 50.6-44.1 53-26.9 2.5-50.6-17.3-53-44.1-2.5-26.9 17.3-50.6 44.1-53.1 26.8-2.4 50.6 17.4 53 44.2z"/>
							<path id="&lt;Path&gt;" class="s5" d="m600.2 105.5c2.7 29.5-19 55.6-48.5 58.3-29.5 2.7-55.7-19.1-58.3-48.6-2.7-29.5 19-55.6 48.5-58.3 29.5-2.7 55.6 19 58.3 48.6z"/>
						</g>
					</g>
					<path id="&lt;Path&gt;" class="s4" d="m442.8 160.9c-4.6 0.6-9 0.3-13.1-0.9-4.2-1.2-8-3-11.3-5.6-3.3-2.6-6-5.8-8.2-9.5-2.2-3.8-3.6-8-4.2-12.6-0.8-5.7-0.7-11.2 0.3-16.5 1-5.4 2.9-10.4 5.6-14.8 2.9-4.4 6.6-8.2 11.2-11.1 4.7-3 10.2-4.9 16.4-5.8 2.4-0.3 4.8-0.4 7.3-0.4 2.8 0.1 5.4 0.5 7.9 1.4l3.6 1.1v29.3l-6-0.9q-0.9-0.1-1.8-0.1-1.1 0.1-2.1 0.2-2.6 0.4-4.9 1.3c-1.3 0.6-2.4 1.4-3.4 2.3-0.8 0.9-1.5 1.9-1.9 3.1q-0.6 1.8-0.3 4.2c0.1 0.8 0.3 1.5 0.6 2q0.3 0.6 0.8 0.8 0.6 0.4 1.5 0.6 1.2 0.1 2.6-0.1 1.2-0.1 2.5-0.5 1.4-0.5 2.8-1.2 1.5-0.7 2.8-1.6 1.4-0.8 2.5-1.7l7.9-6.1 1.6 34.4-2.4 1.7q-1.9 1.3-4.2 2.5-2.2 1.1-4.6 2-2.3 0.9-4.8 1.5-2.4 0.7-4.7 1z"/>
					<path id="&lt;Compound Path&gt;" class="s6" d="m455.3 88.5v19.4q-1.3-0.1-2.7-0.1-1.3 0-2.6 0.2-3.4 0.4-6.3 1.7-2.9 1.3-5 3.4-2.1 2.2-3.1 5.1-1.1 2.9-0.6 6.6 0.3 2.3 1.3 3.9 1 1.7 2.5 2.6 1.5 1 3.4 1.3 2 0.3 4.2 0 1.7-0.3 3.4-0.9 1.8-0.6 3.5-1.4 1.7-0.8 3.3-1.8 1.5-1 2.8-2l1 21.6q-1.6 1.1-3.6 2.1-1.9 1-4.1 1.8-2.1 0.8-4.2 1.3-2.1 0.6-4.1 0.9-5.8 0.7-11.1-0.8-5.2-1.4-9.4-4.7-4.2-3.2-7-8-2.7-4.7-3.5-10.6-1-7.8 0.3-14.9 1.3-7.2 4.9-12.9 3.6-5.8 9.6-9.6 6-3.8 14.3-4.9 3.1-0.4 6.5-0.4 3.3 0.1 6.3 1.1z"/>
					<g id="&lt;Group&gt;">
						<path id="&lt;Compound Path&gt;" fill-rule="evenodd" class="s4" d="m613 318.6c-3.7 0-7.4-0.3-10.9-0.8-3.6-0.5-7.1-1.3-10.4-2.3-6.7-2-13.1-4.9-18.9-8.6-5.9-3.6-11.3-8.1-16-13.3-4.7-5.1-8.8-10.9-12.1-17.2-3.3-6.2-5.9-13-7.7-20.1-1.9-7.1-2.8-14.7-2.8-22.4 0-7.5 0.9-15 2.6-22.2 1.7-7.2 4.1-14.1 7.3-20.5 3.2-6.5 7.2-12.5 11.7-17.9 4.6-5.4 9.8-10.2 15.6-14.2 2.6-1.8 5.4-3.4 8.2-4.9q2.6-1.3 5.2-2.4 2.7-1.2 5.4-2.1c6.8-2.2 14.1-3.3 21.6-3.3 11.8 0 22.7 2 32.5 5.9 9.9 4 18.5 9.8 25.5 17.3 7.1 7.4 12.5 16.4 16.4 26.9 3.7 10.2 5.6 21.8 5.6 34.3 0 7.8-0.8 15.5-2.5 22.8-1.7 7.3-4.2 14.3-7.4 20.7-3.2 6.4-7.2 12.4-11.8 17.8-4.7 5.4-10 10.2-15.8 14.1-5.8 3.9-12.3 6.9-19.1 9.1-6.9 2.2-14.4 3.3-22.1 3.3zm0.1-103.9q-3.4 0-5.9 1.3c-1.8 0.8-3.3 2-4.5 3.5-1.4 1.6-2.4 3.5-3.1 5.7-0.8 2.3-1.2 4.9-1.2 7.5 0 2.7 0.4 5.4 1.1 8 0.7 2.6 1.7 4.9 3 6.9 1.2 1.7 2.6 3.1 4.3 4.2 1.4 0.9 3 1.3 5 1.3 2.2 0 4.1-0.4 5.7-1.3 1.9-0.9 3.4-2.2 4.6-3.8 1.4-1.8 2.5-3.9 3.2-6.3 0.8-2.5 1.2-5.1 1.2-7.8 0-2.6-0.4-5.3-1.1-7.8-0.7-2.4-1.6-4.5-2.9-6.2-1.2-1.6-2.5-2.9-4.3-3.9-1.4-0.9-3-1.3-5.1-1.3z"/>
						<path id="&lt;Compound Path&gt;" fill-rule="evenodd" class="s4" d="m127.7 323.1c-4.7 0-9.7-0.2-14.7-0.5-5.1-0.4-10.3-1-15.4-1.8-5.1-0.9-10.3-2-15.2-3.5-5.2-1.5-10.1-3.3-14.7-5.6-2.7-1.3-4.3-4-4.3-7l-0.3-142.1c0-3.2 1.9-6 4.9-7.2 4.3-1.8 9-3.5 13.9-4.9 4.8-1.4 9.9-2.6 14.9-3.6 5-0.9 10.1-1.7 15.1-2.2 5-0.5 10-0.7 14.7-0.7 5.5 0 11.1 0.3 16.8 1 5.7 0.7 11.4 1.9 16.7 3.6 5.5 1.7 10.6 4 15.4 6.7 5 2.9 9.4 6.5 13.1 10.7 3.8 4.3 6.9 9.4 9 15 2.1 5.7 3.2 12.2 3.2 19.3 0 5-0.7 9.7-2.1 14-1.5 4.5-3.6 8.5-6.4 12.1q-2.8 3.7-6.5 6.6c4.2 2.8 7.8 6.1 10.8 9.9 3.3 4.1 5.9 8.8 7.7 14 1.8 5.1 2.7 10.7 2.7 16.4 0 7.4-1.4 13.9-4.2 19.4-2.8 5.3-6.5 10-11 13.7-4.4 3.6-9.5 6.6-15.1 8.8-5.3 2.1-10.8 3.8-16.6 5-5.6 1.1-11.3 1.9-16.9 2.3-5.5 0.4-10.8 0.6-15.5 0.6zm1.1-57.9q1-0.1 2.1-0.3 1.3-0.2 2.5-1 0.8-0.5 1.5-1.5c0 0 0.4-0.6 0.4-2.5 0-1.9-0.4-2.6-0.5-2.8q-0.7-1.1-1.5-1.6-0.9-0.6-2.2-0.8-1.1-0.3-2.1-0.3zm0.6-48.7q1.1-0.4 2.3-0.9c1.1-0.5 2.1-1.2 2.9-2.2 0.3-0.3 0.6-1.3 0.6-2.9 0-1-0.1-1.4-0.2-1.5q-0.5-0.9-1.2-1.4-0.8-0.6-1.7-0.9c-1-0.3-1.6-0.3-1.8-0.3q-0.3 0-0.7 0z"/>
						<path id="&lt;Path&gt;" class="s4" d="m313 319.1c-2.1 0-4.2-0.9-5.7-2.4-1.4-1.5-2.2-3.6-2.2-5.7l3-119.5c0.1-4.1 3.4-7.5 7.5-7.7l42.2-2q0.2 0 0.4 0c3 0 5.7 1.7 7 4.4l15.1 31.3 0.5-24.7c0.1-4.1 3.5-7.5 7.6-7.6l39.8-1.4q0.2 0 0.3 0c2.1 0 4.1 0.9 5.6 2.4 1.5 1.5 2.4 3.7 2.2 5.9l-6 114.3c-0.2 3.9-3.3 7.1-7.2 7.4l-44.1 4.1q-0.4 0-0.8 0c-3.2 0-6.1-2-7.3-5l-10.6-27.5-1.5 26.3c-0.3 4.2-3.7 7.4-7.9 7.4z"/>
						<path id="&lt;Path&gt;" class="s4" d="m487.4 323c-8.7 0-17-1.6-24.4-4.8-7.5-3.2-14-7.6-19.4-13.3-5.4-5.5-9.7-12.2-12.7-19.7-3.1-7.5-4.6-15.7-4.6-24.3 0-6.4 0.7-12.8 2.2-18.9 1.5-6.2 3.6-12 6.4-17.5 2.7-5.5 6.1-10.6 10.1-15.2 4-4.6 8.7-8.7 13.8-12.1 5.1-3.4 10.8-6 16.9-7.9 6.1-1.9 12.7-2.8 19.6-2.8 2.4 0 5.1 0.1 7.9 0.3 2.9 0.2 5.7 0.5 8.6 1 2.9 0.5 5.8 1.3 8.6 2.2 3 0.9 5.7 2.2 8.2 3.6 2.6 1.5 4.2 4.4 3.9 7.4l-2.2 30.5c-0.1 1.3-0.5 2.4-1.1 3.4q1.9 0 3.7-0.1 0.1 0 0.3 0c2 0 3.9 0.8 5.4 2.1 1.5 1.5 2.4 3.5 2.4 5.6l1 53.8c0 1.8-0.6 3.6-1.7 5-3 3.8-6.8 7.2-11.2 10-4.1 2.6-8.6 4.8-13.4 6.6-4.6 1.7-9.4 3-14.3 3.8-4.8 0.9-9.5 1.3-14 1.3z"/>
						<g id="&lt;Group&gt;">
							<path id="&lt;Compound Path&gt;" fill-rule="evenodd" class="s7" d="m686.7 227.2q0 10.9-2.4 21-2.3 10.1-6.7 19-4.4 8.8-10.8 16.2-6.3 7.4-14.2 12.6-7.8 5.3-17.1 8.2-9.3 2.9-19.7 2.9h-0.1q-5 0-9.8-0.7-4.7-0.6-9.2-2-9.1-2.8-17.1-7.7-7.9-5-14.3-12-6.5-7-11-15.6-4.5-8.5-7-18.3-2.5-9.8-2.5-20.5 0-10.4 2.3-20.4 2.4-10 6.8-18.8 4.4-8.9 10.6-16.3 6.3-7.4 14.1-12.8 3.5-2.5 7.3-4.4 2.3-1.2 4.7-2.2 0 0 0 0 2.3-1 4.8-1.8 9-3 19.1-3 16.2 0 29.5 5.4 13.4 5.4 22.8 15.4 9.5 10 14.7 24.1 5.2 14.2 5.2 31.7zm-62.8 27.9q4.2-2.2 7.1-5.9 2.9-3.8 4.5-8.7 1.6-4.9 1.6-10.2 0-5.1-1.4-10-1.4-4.8-4.1-8.6-2.7-3.8-6.7-6.1-3.9-2.3-9.1-2.3-5.2 0-9.4 2-4.1 2-7.1 5.6-2.9 3.5-4.5 8.2-1.5 4.7-1.5 10 0 5 1.3 10.1 1.3 5 4 9.1 2.7 4 6.7 6.5 3.9 2.6 9.2 2.6 5.2 0 9.4-2.3z"/>
							<path id="&lt;Compound Path&gt;" fill-rule="evenodd" class="s7" d="m202.7 269.7q0 9.2-3.3 15.8-3.4 6.6-9 11.2-5.6 4.7-13 7.6-7.3 2.9-15.2 4.6-8 1.6-16 2.2-8 0.5-14.9 0.5-6.9 0-14.2-0.5-7.3-0.5-14.6-1.7-7.3-1.2-14.3-3.2-7.1-2.1-13.4-5.2l-0.2-142q6.2-2.5 13.1-4.6 7-2 14.2-3.4 7.2-1.4 14.4-2.1 7.2-0.7 13.9-0.7 7.8 0 15.8 1 8 1 15.4 3.3 7.4 2.3 13.8 6 6.4 3.7 11.2 9.1 4.8 5.4 7.5 12.6 2.7 7.1 2.7 16.5 0 6.2-1.8 11.6-1.8 5.4-5.1 9.7-3.3 4.3-8 7.3-4.8 3.1-10.7 4.5 7.2 1.9 13.1 5.5 5.9 3.7 10 8.8 4.1 5.2 6.4 11.7 2.2 6.5 2.2 13.9zm-71.6-26.9q-3.2 0-6.2 0.7l-0.5 25.1q1.7 0.4 3.3 0.6 1.6 0.3 3.1 0.3 2.4 0 5.1-0.5 2.8-0.5 5.2-2 2.4-1.5 4-4 1.6-2.5 1.6-6.7 0-4.2-1.6-6.9-1.6-2.6-3.9-4.1-2.3-1.5-5.1-2-2.7-0.5-5-0.5zm15.6-35.9q0-3.2-1.3-5.5-1.3-2.3-3.3-3.7-1.9-1.4-4.1-2.1-2.3-0.6-4.1-0.6-2.2 0-4.3 0.6-2.1 0.7-4.1 1.6l-0.6 24.4q2.5 0 6.3-0.4 3.7-0.4 7.2-1.9 3.5-1.5 5.9-4.4 2.4-3 2.4-8z"/>
							<path id="&lt;Compound Path&gt;" class="s7" d="m432.1 188l-6.1 114.4-44.1 4.1-23.7-61.3-3.7 62.4h-37.9l3-119.6 42.2-2 29.2 60.7 1.3-57.3z"/>
							<path id="&lt;Compound Path&gt;" class="s7" d="m537.8 292.8q-3.8 4.7-9.3 8.2-5.5 3.6-11.9 5.9-6.3 2.3-12.9 3.5-6.7 1.1-12.7 1.1-11.6 0-21.3-4.1-9.8-4.2-16.9-11.5-7-7.3-11-17.3-4-9.9-4-21.3 0-8.7 2-17.1 2-8.4 5.7-15.8 3.7-7.4 9.1-13.6 5.3-6.2 12.1-10.6 6.8-4.5 14.9-7 8.1-2.5 17.3-2.5 3.4 0 7.3 0.3 4 0.3 7.8 1 3.9 0.6 7.6 1.8 3.7 1.2 6.7 3l-2.2 30.6q-4.5-1.7-9.3-2.3-4.7-0.6-9.3-0.6-6.4 0-11.9 1.9-5.6 2-9.7 5.7-4.1 3.7-6.5 8.9-2.4 5.3-2.4 12 0 4.1 1.1 8 1.1 3.9 3.4 6.9 2.3 3 5.7 4.8 3.4 1.9 7.8 1.9 3.1 0 6.3-0.8 3.3-0.8 5.6-2.8l0.3-6.2-19.2-0.3 1-24q11.9-0.4 23.8-0.7 11.9-0.3 24-0.8z"/>
						</g>
						<path id="&lt;Path&gt;" class="s4" d="m205.7 162.2q-2.8-17.4-5.4-34.5c-1.7-11.5-3.4-23.1-5.1-34.7l-0.8-5.5 37.6-6.5 0.4 6.3c0.5 7.3 1 14.7 1.6 22.1 0.4 5.2 0.9 10.6 1.6 15.9l3.3-0.6q2.7-0.4 5.3-0.9 2.7-0.6 5.6-1.1l6.2-1 2.6 33.4-52 13.3z"/>
						<path id="&lt;Compound Path&gt;" fill-rule="evenodd" class="s4" d="m333.9 158.9c-3.4 0-6.6-0.5-9.7-1.3-3.1-0.9-6-2.1-8.7-3.7-2.6-1.5-5.1-3.5-7.3-5.7-2.2-2.2-4-4.7-5.6-7.4-1.5-2.7-2.7-5.6-3.5-8.6-0.9-3.1-1.3-6.4-1.3-9.7 0-3.2 0.4-6.5 1.2-9.6 0.8-3.1 1.9-6 3.4-8.8 1.5-2.7 3.3-5.3 5.3-7.6 2.2-2.4 4.6-4.4 7.2-6.1 2.6-1.7 5.5-3.1 8.6-4 3.1-1 6.4-1.5 9.8-1.5 5.3 0 10.3 0.9 14.7 2.6 4.5 1.7 8.5 4.2 11.8 7.4 3.2 3.2 5.7 7.1 7.5 11.6 1.7 4.4 2.6 9.4 2.6 14.7 0 3.4-0.4 6.7-1.1 9.8-0.8 3.1-2 6.1-3.4 8.9-1.5 2.8-3.3 5.4-5.5 7.7-2.1 2.3-4.5 4.3-7.2 6-2.7 1.6-5.6 3-8.8 3.9-3.1 0.9-6.5 1.4-10 1.4zm0-41.8q-1 0-1.7 0.3-0.8 0.3-1.3 0.9-0.6 0.6-0.9 1.5-0.3 1-0.3 2.2 0 1.3 0.3 2.5 0.4 1.2 1 2.1 0.5 0.6 1.2 1c0.1 0.1 0.4 0.3 1.1 0.3q1 0 1.7-0.3c0.5-0.3 0.9-0.6 1.2-1q0.7-0.8 1-1.8 0.4-1.1 0.4-2.3 0-1.3-0.4-2.4-0.3-1-0.9-1.8-0.4-0.6-1.1-1-0.5-0.2-1.3-0.2z"/>
						<path id="&lt;Compound Path&gt;" fill-rule="evenodd" class="s4" d="m547.8 151c-3.7 0.1-7.4-0.3-10.8-1.2-3.4-0.9-6.6-2.1-9.6-3.8-2.9-1.7-5.7-3.7-8.2-6.1-2.4-2.4-4.5-5-6.3-8-1.7-2.9-3.1-6.1-4.1-9.4-1-3.4-1.6-6.9-1.7-10.6 0-3.6 0.3-7.1 1.1-10.5 0.8-3.5 2-6.8 3.5-9.8 1.6-3.1 3.5-6 5.7-8.6 2.3-2.6 4.9-4.9 7.7-6.8 2.9-2 6-3.6 9.4-4.7 3.4-1.1 7-1.7 10.8-1.8 5.8-0.1 11.2 0.7 16.2 2.4 5 1.8 9.4 4.4 13.1 7.8 3.6 3.5 6.5 7.7 8.6 12.6 2 4.9 3.1 10.3 3.2 16.2 0.1 3.7-0.2 7.3-1 10.8-0.8 3.4-2 6.8-3.5 9.8-1.6 3.1-3.5 6-5.8 8.6-2.3 2.6-4.9 4.9-7.8 6.8-2.9 1.9-6.1 3.4-9.5 4.5-3.5 1.1-7.2 1.7-11 1.8zm-1.1-46q-1.2 0.1-1.9 0.4-0.8 0.4-1.4 1.1-0.6 0.7-0.9 1.6-0.4 1.2-0.3 2.4 0 1.4 0.4 2.8 0.4 1.3 1.1 2.2 0.6 0.7 1.3 1.2c0.2 0 0.5 0.2 1.4 0.2q1 0 1.8-0.4 0.8-0.4 1.3-1.1 0.7-0.8 1-2 0.4-1.2 0.4-2.5 0-1.4-0.5-2.7-0.3-1.1-1-1.9-0.5-0.6-1.3-1-0.5-0.3-1.4-0.3z"/>
						<g id="&lt;Group&gt;">
							<path id="&lt;Compound Path&gt;" class="s6" d="m253.2 126.6l1.7 22.4-41.1 10.5q-2.8-17.3-5.4-34.5-2.6-17.2-5.1-34.6l25.8-4.5q0.8 11.1 1.6 22.1 0.9 11 2.3 22.1 2.4-0.3 4.7-0.7 2.2-0.4 4.6-0.8 2.7-0.5 5.4-1 2.7-0.5 5.5-1z"/>
							<path id="&lt;Compound Path&gt;" fill-rule="evenodd" class="s6" d="m367 119.9q0 4.4-1 8.5-1 4.1-2.9 7.6-1.9 3.6-4.6 6.6-2.7 2.9-6.1 5-3.4 2.2-7.4 3.3-4 1.2-8.5 1.2-4.3 0-8.3-1.1-3.9-1.1-7.3-3.1-3.4-2-6.2-4.8-2.8-2.8-4.7-6.3-2-3.4-3.1-7.4-1-3.9-1-8.2 0-4.2 1-8.2 1-4 2.9-7.6 1.9-3.6 4.6-6.5 2.7-3 6-5.2 3.4-2.2 7.3-3.4 3.9-1.2 8.2-1.2 7 0 12.8 2.2 5.7 2.2 9.8 6.2 4 4 6.3 9.7 2.2 5.7 2.2 12.7zm-21.4 1.3q0-2.1-0.6-4-0.6-2-1.7-3.5-1.2-1.5-2.9-2.4-1.7-1-3.9-1-2.3 0-4.1 0.8-1.7 0.9-3 2.3-1.3 1.4-2 3.3-0.6 1.9-0.6 4 0 2 0.5 4.1 0.6 2 1.8 3.6 1.1 1.7 2.8 2.7 1.8 1 4 1 2.3 0 4.1-0.9 1.8-0.9 3-2.4 1.3-1.5 2-3.5 0.6-2 0.6-4.1z"/>
							<path id="&lt;Compound Path&gt;" fill-rule="evenodd" class="s6" d="m583.2 107.3q0.1 4.9-0.9 9.4-1 4.5-3 8.4-2 4-4.9 7.3-2.9 3.3-6.6 5.8-3.7 2.4-8.1 3.8-4.3 1.4-9.3 1.5-4.7 0.1-9.1-1-4.3-1.1-8.1-3.3-3.8-2.1-7-5.1-3.1-3-5.3-6.8-2.2-3.7-3.5-8-1.3-4.3-1.4-9-0.1-4.6 0.9-9.1 1-4.4 3-8.4 2-4 4.9-7.3 2.9-3.4 6.5-5.8 3.6-2.5 7.9-3.9 4.2-1.5 9-1.6 7.7-0.1 14.1 2.1 6.4 2.2 10.9 6.6 4.6 4.3 7.2 10.5 2.6 6.2 2.8 13.9zm-23.5 2q0-2.3-0.7-4.4-0.8-2.2-2.1-3.8-1.3-1.7-3.2-2.6-1.9-1-4.3-1-2.5 0.1-4.4 1-2 1-3.4 2.6-1.3 1.6-2 3.7-0.7 2.1-0.7 4.4 0.1 2.2 0.8 4.4 0.7 2.2 2 4 1.3 1.8 3.2 2.9 1.9 1 4.4 1 2.5-0.1 4.4-1.1 2-1 3.4-2.7 1.3-1.7 2-3.9 0.7-2.2 0.6-4.5z"/>
						</g>
					</g>
					<g id="&lt;Group&gt;">
						<path id="&lt;Path&gt;" class="s4" d="m241.9 422.5q-2.3 0-4.6-0.2c-4.2-0.4-8.1-1.4-11.5-3-3.9-1.9-6.8-4.4-8.5-7.7-1-1.8-0.8-4 0.4-5.7l11.3-15.5c0.8-1.2 2.2-2 3.6-2.2q0.4 0 0.7 0c1.2 0 2.4 0.4 3.4 1.2q2.3 1.9 4.8 2.9 2.6 1.1 4.9 1.5 1 0.1 1.8 0.1 0 0 0 0 0.7 0 1.3-0.1c0.5-0.1 0.8-0.2 0.9-0.3 0-0.1-0.1-0.3-0.2-0.7-0.2-0.5-1.2-2.3-6-5.3q0-0.1-0.1-0.1c-2.5-1.6-4.9-3.3-7-5-2.3-1.9-4.3-4-6-6.3-1.8-2.4-3.1-5.2-3.9-8.3-0.8-3-1-6.5-0.6-10.3q0 0 0 0c0.6-5.1 2.4-9.5 5.4-13.2 2.7-3.5 6.2-6.4 10.1-8.4 3.9-2 8.1-3.4 12.6-4.2 3.2-0.6 6.5-0.9 9.6-0.9q1.7 0 3.3 0.1c4.3 0.3 8.4 1.1 12.1 2.5 4 1.5 7.2 3.6 9.7 6.3 1.7 2 1.8 4.9 0.2 7l-13.3 16.8c-0.8 1.1-2.1 1.9-3.6 2q-0.3 0.1-0.6 0.1c-1.2 0-2.4-0.5-3.3-1.2q-2.5-2-5.3-3.3-2.6-1.2-4.9-1.5-0.6 0-1.2 0-0.8 0-1.5 0.2c0.2 0.5 1.4 2.4 6.5 5.8q3.7 2.3 7.2 4.7c2.7 1.8 5 3.9 6.9 6.1 2.1 2.3 3.6 5.1 4.5 8.1 1.1 3.3 1.1 7 0.3 11.1q-0.1 0-0.1 0.1c-1.3 5.2-3.6 9.7-6.9 13.4-3.2 3.6-7 6.5-11.1 8.6-4 2-8.4 3.4-13 4.2-2.8 0.4-5.6 0.6-8.3 0.6z"/>
						<path id="&lt;Compound Path&gt;" class="s4" d="m278.5 415.7c-1.3 0-2.7-0.6-3.7-1.6-1.3-1.2-1.8-3-1.6-4.7l12.5-73.4c0.4-2.2 2.1-4 4.3-4.4l4.8-0.8c4.6-1.2 8.5-2.1 11.8-2.6 3.4-0.7 7.1-1.1 10.9-1.4q0.9-0.1 1.7-0.1c2.4 0 4.8 0.4 7.1 1.1 3 1 5.6 2.5 7.8 4.5 2.4 2 4.1 4.7 5.2 7.8 1.1 3.1 1.3 6.5 0.7 10.2-0.8 5-2.5 9.4-4.8 13.3-2.3 3.8-5.1 7.2-8.6 10.4-3.3 3-7.1 5.9-11.4 8.6-3.4 2.2-7 4.3-10.7 6.4l-2.8 18.7c-0.3 2.3-2 4.1-4.3 4.5l-17.9 3.4q-0.5 0.1-1 0.1z"/>
						<path id="&lt;Path&gt;" class="s4" d="m330.5 413.4c-1.1 0-2.3-0.3-3.2-1-1.5-1.2-2.3-3-2.1-4.9l8.6-76.4c0.2-2.5 2.1-4.4 4.6-4.8l17.1-2.2q0.3-0.1 0.7-0.1c1.4 0 2.7 0.6 3.8 1.5 1.1 1.2 1.7 2.9 1.5 4.5l-5.3 45.6q3.9-1 7.9-2c5.7-1.3 10.7-2.1 14.8-2.2q0.1 0 0.2 0c1.6 0 3.1 0.6 4.1 1.8 1.1 1.2 1.5 2.8 1.2 4.4l-3 17.7c-0.4 2.6-2.7 4.5-5.3 4.5 0 0-0.1-0.1-0.1-0.1-0.7 0-2.1 0.1-4.5 0.6-2.2 0.3-4.6 0.9-7.1 1.5-2.6 0.7-5.5 1.5-8.5 2.3-2.8 0.8-5.6 1.7-8.2 2.7l-15.1 6.2q-1 0.4-2.1 0.4z"/>
						<path id="&lt;Path&gt;" class="s4" d="m375.6 408.8c-1.9 0-3.6-1-4.5-2.5-1.1-1.6-1.2-3.5-0.4-5.2l36.9-76.6c0.8-1.6 2.2-2.7 4-3l18.7-3.1q0.5 0 0.9 0c1.2 0 2.4 0.4 3.3 1.1 1.2 0.9 1.9 2.3 2.1 3.8l5.9 72.4c0.2 2.5-1.3 4.8-3.7 5.6l-17.2 5.5q-0.8 0.3-1.6 0.3c-1.1 0-2.1-0.3-3-0.9-1.3-0.9-2.2-2.4-2.4-4l-0.8-9-16.6 8.1-2 4.1c-0.9 1.8-2.7 2.9-4.7 3l-14.8 0.4q-0.1 0-0.1 0z"/>
						<path id="&lt;Path&gt;" class="s4" d="m456.6 406.9q-2.4 0-4.6-0.2c-4.3-0.5-8.2-1.5-11.6-3.1-3.9-1.8-6.7-4.4-8.5-7.6-1-1.8-0.8-4.1 0.4-5.7l11.3-15.5c0.9-1.2 2.2-2 3.6-2.2q0.4 0 0.7 0c1.3 0 2.5 0.4 3.4 1.1q2.3 1.9 4.8 3 2.7 1 4.9 1.4 1 0.2 1.8 0.2 0.8 0 1.4-0.2c0.5-0.1 0.7-0.2 0.8-0.3 0-0.1 0-0.3-0.2-0.6-0.2-0.5-1.2-2.4-6-5.4q0 0 0 0c-2.6-1.7-5-3.4-7.1-5.1-2.3-1.8-4.3-3.9-6-6.2-1.8-2.5-3.1-5.3-3.9-8.3-0.8-3.1-1-6.6-0.6-10.3q0-0.1 0-0.1c0.7-5 2.5-9.5 5.4-13.2 2.8-3.5 6.2-6.3 10.2-8.4 3.8-2 8-3.4 12.5-4.2 3.2-0.5 6.5-0.8 9.7-0.8q1.6 0 3.2 0.1c4.4 0.3 8.4 1.1 12.1 2.5 4 1.5 7.2 3.6 9.7 6.3 1.8 1.9 1.9 4.8 0.2 6.9l-13.2 16.9c-0.9 1.1-2.2 1.8-3.6 2q-0.3 0-0.6 0c-1.3 0-2.5-0.4-3.4-1.2q-2.4-1.9-5.2-3.2-2.6-1.2-4.9-1.5-0.7-0.1-1.2-0.1-0.9 0-1.6 0.2c0.2 0.5 1.4 2.5 6.6 5.8q3.7 2.4 7.2 4.7c2.7 1.9 5 3.9 6.8 6.1 2.1 2.4 3.6 5.1 4.6 8.2 1 3.2 1.1 7 0.2 11q0 0.1-0.1 0.2c-1.2 5.1-3.6 9.7-6.9 13.4-3.2 3.5-6.9 6.4-11.1 8.5-4 2.1-8.4 3.5-12.9 4.2-2.9 0.5-5.7 0.7-8.3 0.7z"/>
						<path id="&lt;Path&gt;" class="s4" d="m492.4 400.9c-1.5 0-2.9-0.6-3.9-1.6-1.2-1.2-1.7-2.9-1.4-4.5l11.7-76.5c0.3-2.4 2.3-4.3 4.8-4.5l22.1-2q0.2 0 0.5 0c1.5 0 2.9 0.6 4 1.7 1.1 1.3 1.6 3 1.3 4.6l-3.6 19.6 1.8-1.2 4-20.6c0.4-2.3 2.3-4.1 4.6-4.3l20.6-2.4q0.3 0 0.6 0c1.5 0 2.9 0.6 3.9 1.7 1.2 1.2 1.7 3 1.4 4.6l-13.8 74.1c-0.4 2.4-2.5 4.2-4.9 4.3l-20.8 1.4q-0.2 0-0.4 0c-1.5 0-3-0.7-4-1.8-1.1-1.3-1.6-3-1.2-4.6l2.8-14.7-1.4 1.1-3.4 19.1c-0.4 2.3-2.3 4.1-4.7 4.4l-20.1 2.1q-0.2 0-0.5 0z"/>
					</g>
					<g id="&lt;Group&gt;">
						<path id="&lt;Compound Path&gt;" class="s8" d="m249.4 380.5q-3.6-2.3-6.5-4.7-3-2.4-5.1-5.2-2.1-2.9-3-6.5-1-3.7-0.5-8.4 0.8-6.1 4.3-10.5 3.4-4.4 8.4-7 5-2.6 11-3.6 5.9-1.1 11.7-0.7 5.7 0.4 10.5 2.2 4.8 1.8 7.6 4.9l-13.3 16.8q-2.9-2.4-6.3-3.9-3.4-1.6-6.5-2-3.2-0.4-5.5 0.5-2.4 0.9-3.1 3.3-1.8 5.2 8.8 12 3.7 2.3 7.1 4.7 3.5 2.3 5.8 5.1 2.4 2.7 3.5 6.3 1.1 3.5 0.1 8.2-1.6 6.5-5.8 11.2-4.1 4.6-9.4 7.3-5.4 2.7-11.4 3.7-6.1 0.9-11.6 0.4-5.4-0.6-9.7-2.6-4.3-2-6.1-5.3l11.3-15.5q2.9 2.4 6.1 3.7 3.2 1.3 6.1 1.8 2.9 0.5 5.2 0 2.3-0.6 3.6-1.9 2.4-2.6 0.9-6.3-1.5-3.8-8.2-8z"/>
						<path id="&lt;Compound Path&gt;" fill-rule="evenodd" class="s9" d="m293.4 334.5l4.9-0.9q6.8-1.7 11.6-2.5 4.9-0.9 10.4-1.3 3.4-0.3 6.8 0.8 3.3 1 5.8 3.3 2.5 2.2 3.7 5.6 1.2 3.3 0.5 7.5-1.1 6.5-4.1 11.5-3 4.9-7.6 9.1-4.6 4.3-10.7 8.1-6 3.8-12.8 7.6l-3.1 21.2-17.9 3.4zm10.8 33.4q8.9-5 12.6-9.5 3.8-4.5 3.4-7.3-0.4-2.8-4.1-3.4-3.6-0.6-9.3 2.2z"/>
						<path id="&lt;Compound Path&gt;" class="s10" d="m358.6 327l-6.3 53.6q7.3-2.2 15.4-4.1 8.2-1.9 13.8-2.2l-3 17.7q-2.1 0-5.6 0.6-3.5 0.6-7.5 1.6-4.1 1.1-8.6 2.4-4.4 1.3-8.7 2.8l-15.2 6.3 8.6-76.4z"/>
						<path id="&lt;Compound Path&gt;" fill-rule="evenodd" class="s11" d="m420.8 382.5l-25.2 12.4-2.8 5.7-14.8 0.4 36.8-76.6 18.8-3.1 6 72.5-17.2 5.5zm-1.6-16.3l-1.4-14.5-10.2 20z"/>
						<path id="&lt;Compound Path&gt;" class="s12" d="m464 364.9q-3.6-2.4-6.5-4.7-3-2.4-5.1-5.3-2.1-2.8-3-6.5-1-3.6-0.5-8.3 0.8-6.1 4.3-10.5 3.5-4.4 8.4-7 5-2.6 11-3.7 6-1 11.7-0.6 5.7 0.3 10.5 2.1 4.8 1.8 7.6 4.9l-13.3 16.9q-2.9-2.4-6.3-4-3.4-1.6-6.5-1.9-3.2-0.4-5.5 0.5-2.4 0.8-3 3.3-1.9 5.1 8.8 11.9 3.6 2.4 7 4.7 3.5 2.3 5.9 5.1 2.3 2.8 3.4 6.3 1.2 3.6 0.1 8.3-1.6 6.5-5.7 11.1-4.2 4.6-9.5 7.4-5.3 2.7-11.4 3.6-6 1-11.5 0.4-5.5-0.5-9.8-2.5-4.3-2-6.1-5.4l11.3-15.5q3 2.4 6.2 3.7 3.2 1.4 6 1.8 2.9 0.5 5.2 0 2.3-0.5 3.6-1.8 2.4-2.6 0.9-6.4-1.5-3.8-8.2-7.9z"/>
						<path id="&lt;Compound Path&gt;" class="s13" d="m561.9 312.2l-13.8 74-20.8 1.3 5.5-28.5-14.2 10.9-3.8 21.1-20 2.2 11.6-76.5 22.2-1.9-6 32.2 14.3-9.7 4.4-22.8z"/>
					</g>
				</g>
				<g id="&lt;Group&gt;">
					<path id="&lt;Compound Path&gt;" fill-rule="evenodd" class="s4" d="m254.8 319.9c-11.2 0-22.3-2.8-32.1-8.2-5.5-3-10.6-6.8-15.1-11.4-4.5-4.5-8.4-9.6-11.4-15.1-10.8-19.7-10.8-44.2-0.1-64l0.1-0.2q0.6-1 1.2-2 0.6-1 1.2-2 0.7-1 1.4-2c2.2-3.2 4.8-6.3 7.6-9.1 4.5-4.5 9.6-8.3 15.1-11.4 9.8-5.3 20.9-8.2 32.1-8.2 11.2 0 22.3 2.9 32.1 8.2 5.5 3.1 10.6 6.9 15.1 11.4 4.5 4.5 8.3 9.6 11.4 15.1 10.8 19.8 10.8 44.4 0 64.2-3.1 5.5-6.9 10.6-11.4 15.1-4.5 4.6-9.6 8.4-15.1 11.4-9.8 5.4-20.9 8.2-32.1 8.2zm0-90.8c-3.2 0-6.2 0.6-9.1 1.8-3 1.2-5.6 3-7.9 5.2-2.2 2.3-4 5-5.2 7.9-2.4 5.8-2.4 12.4 0 18.2q0.2 0.5 0.3 0.9 0.2 0.4 0.4 0.7 0.2 0.5 0.4 0.8 0.2 0.4 0.5 0.8 0.2 0.4 0.5 0.8c0.1 0.2 0.2 0.3 0.3 0.4 0.2 0.3 0.3 0.6 0.5 0.8q0.3 0.5 0.7 0.9 0.4 0.5 0.9 1 0.4 0.4 0.7 0.8c2.3 2.3 4.9 4 7.9 5.2 2.9 1.2 5.9 1.8 9.1 1.8 3.1 0 6.2-0.6 9.1-1.8 3-1.2 5.6-2.9 7.9-5.2 2.2-2.3 4-4.9 5.2-7.9 2.4-5.7 2.4-12.3 0-18.1q0 0 0-0.1-1.9-4.5-5.2-7.8c-2.3-2.3-4.9-4.1-7.9-5.3-2.9-1.2-6-1.8-9.1-1.8z"/>
					<path id="&lt;Compound Path&gt;" fill-rule="evenodd" class="s4" d="m312.6 284.8c-3 5.5-6.8 10.5-11.2 14.9-4.5 4.5-9.5 8.3-14.9 11.2-9.7 5.3-20.6 8.1-31.7 8.1-11.1 0-22-2.8-31.7-8.1-5.4-2.9-10.5-6.7-14.9-11.2-4.5-4.4-8.2-9.4-11.2-14.9-10.7-19.5-10.7-43.7-0.1-63.2q0-0.1 0.1-0.2 0.5-1 1.1-2 0.6-1 1.3-2 0.6-0.9 1.3-1.9 3.3-4.8 7.5-9c4.4-4.4 9.5-8.2 14.9-11.2 9.7-5.3 20.6-8.1 31.7-8.1 11.1 0 22 2.8 31.7 8.1 5.4 3 10.4 6.8 14.9 11.2 4.4 4.5 8.2 9.5 11.2 14.9 10.7 19.6 10.7 43.9 0 63.4zm-57.8-6.8c3.3 0 6.4-0.6 9.4-1.9 3.1-1.2 5.8-3 8.2-5.4 2.3-2.3 4.2-5.1 5.4-8.1 2.5-6 2.5-12.8 0-18.8q0-0.1 0-0.1c-1.2-3.1-3.1-5.8-5.4-8.2-2.4-2.3-5.1-4.1-8.2-5.4-3-1.2-6.1-1.8-9.4-1.8-3.3 0-6.4 0.6-9.4 1.8-3.1 1.3-5.8 3.1-8.2 5.4-2.3 2.4-4.2 5.1-5.4 8.2-2.5 6-2.5 12.9 0 18.9q0.2 0.4 0.4 0.8 0.1 0.4 0.3 0.8 0.2 0.5 0.5 0.9 0.2 0.4 0.4 0.8 0.3 0.4 0.6 0.8 0.1 0.2 0.3 0.5 0.2 0.3 0.5 0.7 0.3 0.5 0.7 1 0.5 0.5 1 1 0.3 0.4 0.7 0.8c2.4 2.4 5.1 4.2 8.2 5.4 3 1.3 6.1 1.9 9.4 1.9z"/>
					<g id="&lt;Group&gt;">
						<path id="&lt;Compound Path&gt;" fill-rule="evenodd" class="s7" d="m309.7 279.9c-2.7 4.8-6.1 9.4-10.2 13.6-4.2 4.1-8.8 7.5-13.6 10.2-18 9.9-39.9 9.9-57.8 0-4.9-2.7-9.5-6.1-13.7-10.2-4.1-4.2-7.5-8.8-10.2-13.6-9.9-18-9.9-39.9 0-57.8 2.7-4.9 6.1-9.5 10.2-13.7 4.2-4.1 8.8-7.5 13.7-10.2 17.9-9.9 39.8-9.9 57.8 0 4.8 2.7 9.4 6.1 13.6 10.2 4.1 4.2 7.5 8.8 10.2 13.7 9.9 17.9 9.9 39.8 0 57.8zm-21.5-15.3c1.9-4.1 2.9-8.8 2.9-13.6 0-4.9-1-9.5-2.9-13.7-3.4-7.9-9.7-14.2-17.6-17.6-4.1-1.8-8.8-2.9-13.6-2.9-4.9 0-9.5 1.1-13.7 2.9-7.9 3.4-14.2 9.7-17.6 17.6-1.8 4.2-2.9 8.8-2.9 13.7 0 4.8 1.1 9.5 2.9 13.7 3.4 7.8 9.7 14.1 17.6 17.5 4.2 1.9 8.8 2.9 13.7 2.9 4.8 0 9.5-1 13.7-2.9 7.8-3.4 14.1-9.7 17.5-17.6z"/>
						<g id="&lt;Group&gt;">
							<path id="&lt;Path&gt;" class="s14" d="m309.7 222.1l-21.5 15.2c-3.4-7.9-9.7-14.2-17.6-17.6l15.3-21.5c4.8 2.7 9.4 6.1 13.6 10.2 4.1 4.2 7.5 8.8 10.2 13.7z"/>
							<path id="&lt;Path&gt;" class="s14" d="m243.3 282.2l-15.2 21.5c-4.9-2.7-9.5-6.1-13.7-10.2-4.1-4.2-7.5-8.8-10.2-13.6l21.5-15.2c3.4 7.8 9.7 14.1 17.6 17.5z"/>
						</g>
						<g id="&lt;Group&gt;">
							<path id="&lt;Path&gt;" class="s15" d="m309.7 222.1l-21.5 15.2c-3.4-7.9-9.7-14.2-17.6-17.6l15.3-21.5c4.8 2.7 9.4 6.1 13.6 10.2 4.1 4.2 7.5 8.8 10.2 13.7z"/>
							<path id="&lt;Path&gt;" class="s15" d="m243.3 282.2l-15.2 21.5c-4.9-2.7-9.5-6.1-13.7-10.2-4.1-4.2-7.5-8.8-10.2-13.6l21.5-15.2c3.4 7.8 9.7 14.1 17.6 17.5z"/>
						</g>
						<g id="&lt;Group&gt;">
							<path id="&lt;Path&gt;" class="s15" d="m309.7 279.9c-2.7 4.8-6.1 9.4-10.2 13.6-4.2 4.1-8.8 7.5-13.6 10.2l-15.2-21.5c7.8-3.4 14.1-9.7 17.5-17.6z"/>
							<path id="&lt;Path&gt;" class="s15" d="m243.3 219.7c-7.9 3.4-14.2 9.7-17.6 17.6l-21.5-15.2c2.7-4.9 6.1-9.5 10.2-13.7 4.2-4.1 8.8-7.5 13.7-10.2z"/>
						</g>
					</g>
					<path id="&lt;Path&gt;" class="s16" d="m231 203.6c-4.3 2.4-8.5 5.5-12.2 9.2-3.7 3.7-6.8 7.9-9.2 12.2-4.8 8.9-7 18.9-6.5 28.7"/>
					<path id="&lt;Path&gt;" class="s17" d="m291.1 251c0 4.8-1 9.5-2.9 13.6l-2.9-2c3.1-7.4 3.1-15.8 0-23.3l2.9-2c1.9 4.2 2.9 8.8 2.9 13.7z"/>
					<path id="&lt;Path&gt;" class="s18" d="m288.2 237.3l-2.9 2c-1.5-3.6-3.7-7-6.7-10-2.9-3-6.4-5.2-10-6.7l2-2.9c7.9 3.4 14.2 9.7 17.6 17.6z"/>
					<path id="&lt;Path&gt;" class="s17" d="m270.6 219.7l-2 2.9c-7.4-3-15.8-3-23.3 0l-2-2.9c4.2-1.8 8.8-2.9 13.7-2.9 4.8 0 9.5 1.1 13.6 2.9z"/>
					<path id="&lt;Path&gt;" class="s18" d="m245.3 222.6c-3.6 1.5-7 3.7-10 6.7-3 3-5.2 6.4-6.7 10l-2.9-2c3.4-7.9 9.7-14.2 17.6-17.6z"/>
					<path id="&lt;Path&gt;" class="s17" d="m228.6 262.6l-2.9 2.1c-1.8-4.2-2.9-8.9-2.9-13.7 0-4.9 1.1-9.5 2.9-13.7l2.9 2c-3 7.5-3 15.9 0 23.3z"/>
					<path id="&lt;Path&gt;" class="s18" d="m245.3 279.3l-2 2.9c-7.9-3.4-14.2-9.7-17.6-17.5l2.9-2.1c1.5 3.6 3.7 7.1 6.7 10 3 3 6.4 5.2 10 6.7z"/>
					<path id="&lt;Path&gt;" class="s17" d="m270.7 282.2c-4.2 1.9-8.9 2.9-13.7 2.9-4.9 0-9.5-1-13.7-2.9l2-2.9c7.5 3.1 15.9 3.1 23.3 0z"/>
					<path id="&lt;Path&gt;" class="s18" d="m288.2 264.6c-3.4 7.9-9.7 14.2-17.5 17.6l-2.1-2.9c3.6-1.5 7.1-3.7 10-6.7 3-2.9 5.2-6.4 6.7-10z"/>
				</g>
			</g>
		</g>
		<g id="&lt;Group&gt;">
			<path id="&lt;Compound Path&gt;" fill-rule="evenodd" class="s4" d="m254.8 319.9c-11.2 0-22.3-2.8-32.1-8.2-5.5-3-10.6-6.8-15.1-11.4-4.5-4.5-8.4-9.6-11.4-15.1-10.8-19.7-10.8-44.2-0.1-64l0.1-0.2q0.6-1 1.2-2 0.6-1 1.2-2 0.7-1 1.4-2c2.2-3.2 4.8-6.3 7.6-9.1 4.5-4.5 9.6-8.3 15.1-11.4 9.8-5.3 20.9-8.2 32.1-8.2 11.2 0 22.3 2.9 32.1 8.2 5.5 3.1 10.6 6.9 15.1 11.4 4.5 4.5 8.3 9.6 11.4 15.1 10.8 19.8 10.8 44.4 0 64.2-3.1 5.5-6.9 10.6-11.4 15.1-4.5 4.6-9.6 8.4-15.1 11.4-9.8 5.4-20.9 8.2-32.1 8.2zm0-90.8c-3.2 0-6.2 0.6-9.1 1.8-3 1.2-5.6 3-7.9 5.2-2.2 2.3-4 5-5.2 7.9-2.4 5.8-2.4 12.4 0 18.2q0.2 0.5 0.3 0.9 0.2 0.4 0.4 0.7 0.2 0.5 0.4 0.8 0.2 0.4 0.5 0.8 0.2 0.4 0.5 0.8c0.1 0.2 0.2 0.3 0.3 0.4 0.2 0.3 0.3 0.6 0.5 0.8q0.3 0.5 0.7 0.9 0.4 0.5 0.9 1 0.4 0.4 0.7 0.8c2.3 2.3 4.9 4 7.9 5.2 2.9 1.2 5.9 1.8 9.1 1.8 3.1 0 6.2-0.6 9.1-1.8 3-1.2 5.6-2.9 7.9-5.2 2.2-2.3 4-4.9 5.2-7.9 2.4-5.7 2.4-12.3 0-18.1q0 0 0-0.1-1.9-4.5-5.2-7.8c-2.3-2.3-4.9-4.1-7.9-5.3-2.9-1.2-6-1.8-9.1-1.8z"/>
			<path id="&lt;Compound Path&gt;" fill-rule="evenodd" class="s4" d="m312.6 284.8c-3 5.5-6.8 10.5-11.2 14.9-4.5 4.5-9.5 8.3-14.9 11.2-9.7 5.3-20.6 8.1-31.7 8.1-11.1 0-22-2.8-31.7-8.1-5.4-2.9-10.5-6.7-14.9-11.2-4.5-4.4-8.2-9.4-11.2-14.9-10.7-19.5-10.7-43.7-0.1-63.2q0-0.1 0.1-0.2 0.5-1 1.1-2 0.6-1 1.3-2 0.6-0.9 1.3-1.9 3.3-4.8 7.5-9c4.4-4.4 9.5-8.2 14.9-11.2 9.7-5.3 20.6-8.1 31.7-8.1 11.1 0 22 2.8 31.7 8.1 5.4 3 10.4 6.8 14.9 11.2 4.4 4.5 8.2 9.5 11.2 14.9 10.7 19.6 10.7 43.9 0 63.4zm-57.8-6.8c3.3 0 6.4-0.6 9.4-1.9 3.1-1.2 5.8-3 8.2-5.4 2.3-2.3 4.2-5.1 5.4-8.1 2.5-6 2.5-12.8 0-18.8q0-0.1 0-0.1c-1.2-3.1-3.1-5.8-5.4-8.2-2.4-2.3-5.1-4.1-8.2-5.4-3-1.2-6.1-1.8-9.4-1.8-3.3 0-6.4 0.6-9.4 1.8-3.1 1.3-5.8 3.1-8.2 5.4-2.3 2.4-4.2 5.1-5.4 8.2-2.5 6-2.5 12.9 0 18.9q0.2 0.4 0.4 0.8 0.1 0.4 0.3 0.8 0.2 0.5 0.5 0.9 0.2 0.4 0.4 0.8 0.3 0.4 0.6 0.8 0.1 0.2 0.3 0.5 0.2 0.3 0.5 0.7 0.3 0.5 0.7 1 0.5 0.5 1 1 0.3 0.4 0.7 0.8c2.4 2.4 5.1 4.2 8.2 5.4 3 1.3 6.1 1.9 9.4 1.9z"/>
			<g id="&lt;Group&gt;">
				<path id="&lt;Compound Path&gt;" fill-rule="evenodd" class="s7" d="m309.7 279.9c-2.7 4.8-6.1 9.4-10.2 13.6-4.2 4.1-8.8 7.5-13.6 10.2-18 9.9-39.9 9.9-57.8 0-4.9-2.7-9.5-6.1-13.7-10.2-4.1-4.2-7.5-8.8-10.2-13.6-9.9-18-9.9-39.9 0-57.8 2.7-4.9 6.1-9.5 10.2-13.7 4.2-4.1 8.8-7.5 13.7-10.2 17.9-9.9 39.8-9.9 57.8 0 4.8 2.7 9.4 6.1 13.6 10.2 4.1 4.2 7.5 8.8 10.2 13.7 9.9 17.9 9.9 39.8 0 57.8zm-21.5-15.3c1.9-4.1 2.9-8.8 2.9-13.6 0-4.9-1-9.5-2.9-13.7-3.4-7.9-9.7-14.2-17.6-17.6-4.1-1.8-8.8-2.9-13.6-2.9-4.9 0-9.5 1.1-13.7 2.9-7.9 3.4-14.2 9.7-17.6 17.6-1.8 4.2-2.9 8.8-2.9 13.7 0 4.8 1.1 9.5 2.9 13.7 3.4 7.8 9.7 14.1 17.6 17.5 4.2 1.9 8.8 2.9 13.7 2.9 4.8 0 9.5-1 13.7-2.9 7.8-3.4 14.1-9.7 17.5-17.6z"/>
				<g id="&lt;Group&gt;">
					<path id="&lt;Path&gt;" class="s14" d="m309.7 222.1l-21.5 15.2c-3.4-7.9-9.7-14.2-17.6-17.6l15.3-21.5c4.8 2.7 9.4 6.1 13.6 10.2 4.1 4.2 7.5 8.8 10.2 13.7z"/>
					<path id="&lt;Path&gt;" class="s14" d="m243.3 282.2l-15.2 21.5c-4.9-2.7-9.5-6.1-13.7-10.2-4.1-4.2-7.5-8.8-10.2-13.6l21.5-15.2c3.4 7.8 9.7 14.1 17.6 17.5z"/>
				</g>
				<g id="&lt;Group&gt;">
					<path id="&lt;Path&gt;" class="s15" d="m309.7 222.1l-21.5 15.2c-3.4-7.9-9.7-14.2-17.6-17.6l15.3-21.5c4.8 2.7 9.4 6.1 13.6 10.2 4.1 4.2 7.5 8.8 10.2 13.7z"/>
					<path id="&lt;Path&gt;" class="s15" d="m243.3 282.2l-15.2 21.5c-4.9-2.7-9.5-6.1-13.7-10.2-4.1-4.2-7.5-8.8-10.2-13.6l21.5-15.2c3.4 7.8 9.7 14.1 17.6 17.5z"/>
				</g>
				<g id="&lt;Group&gt;">
					<path id="&lt;Path&gt;" class="s15" d="m309.7 279.9c-2.7 4.8-6.1 9.4-10.2 13.6-4.2 4.1-8.8 7.5-13.6 10.2l-15.2-21.5c7.8-3.4 14.1-9.7 17.5-17.6z"/>
					<path id="&lt;Path&gt;" class="s15" d="m243.3 219.7c-7.9 3.4-14.2 9.7-17.6 17.6l-21.5-15.2c2.7-4.9 6.1-9.5 10.2-13.7 4.2-4.1 8.8-7.5 13.7-10.2z"/>
				</g>
			</g>
			<path id="&lt;Path&gt;" class="s16" d="m231 203.6c-4.3 2.4-8.5 5.5-12.2 9.2-3.7 3.7-6.8 7.9-9.2 12.2-4.8 8.9-7 18.9-6.5 28.7"/>
			<path id="&lt;Path&gt;" class="s17" d="m291.1 251c0 4.8-1 9.5-2.9 13.6l-2.9-2c3.1-7.4 3.1-15.8 0-23.3l2.9-2c1.9 4.2 2.9 8.8 2.9 13.7z"/>
			<path id="&lt;Path&gt;" class="s18" d="m288.2 237.3l-2.9 2c-1.5-3.6-3.7-7-6.7-10-2.9-3-6.4-5.2-10-6.7l2-2.9c7.9 3.4 14.2 9.7 17.6 17.6z"/>
			<path id="&lt;Path&gt;" class="s17" d="m270.6 219.7l-2 2.9c-7.4-3-15.8-3-23.3 0l-2-2.9c4.2-1.8 8.8-2.9 13.7-2.9 4.8 0 9.5 1.1 13.6 2.9z"/>
			<path id="&lt;Path&gt;" class="s18" d="m245.3 222.6c-3.6 1.5-7 3.7-10 6.7-3 3-5.2 6.4-6.7 10l-2.9-2c3.4-7.9 9.7-14.2 17.6-17.6z"/>
			<path id="&lt;Path&gt;" class="s17" d="m228.6 262.6l-2.9 2.1c-1.8-4.2-2.9-8.9-2.9-13.7 0-4.9 1.1-9.5 2.9-13.7l2.9 2c-3 7.5-3 15.9 0 23.3z"/>
			<path id="&lt;Path&gt;" class="s18" d="m245.3 279.3l-2 2.9c-7.9-3.4-14.2-9.7-17.6-17.5l2.9-2.1c1.5 3.6 3.7 7.1 6.7 10 3 3 6.4 5.2 10 6.7z"/>
			<path id="&lt;Path&gt;" class="s17" d="m270.7 282.2c-4.2 1.9-8.9 2.9-13.7 2.9-4.9 0-9.5-1-13.7-2.9l2-2.9c7.5 3.1 15.9 3.1 23.3 0z"/>
			<path id="&lt;Path&gt;" class="s18" d="m288.2 264.6c-3.4 7.9-9.7 14.2-17.5 17.6l-2.1-2.9c3.6-1.5 7.1-3.7 10-6.7 3-2.9 5.2-6.4 6.7-10z"/>
		</g>
		<g id="&lt;Group&gt;">
			<path id="&lt;Path&gt;" class="s4" d="m1384.6 376.5q-2.3 0-4.6-0.2c-4.2-0.5-8.1-1.5-11.5-3.1-3.9-1.8-6.8-4.4-8.5-7.6-1-1.8-0.9-4.1 0.4-5.7l11.3-15.5c0.8-1.2 2.1-2 3.6-2.2q0.4 0 0.7 0c1.2 0 2.4 0.4 3.4 1.2q2.3 1.8 4.8 2.9 2.6 1.1 4.9 1.4 1 0.2 1.8 0.2 0.7 0 1.3-0.1c0.5-0.2 0.8-0.3 0.9-0.3 0-0.2-0.1-0.4-0.2-0.7-0.2-0.5-1.2-2.4-6-5.4q0 0-0.1 0c-2.5-1.7-4.9-3.4-7-5.1-2.3-1.8-4.3-3.9-6-6.2-1.8-2.4-3.1-5.2-3.9-8.3-0.8-3.1-1-6.5-0.6-10.3q0-0.1 0-0.1c0.6-5 2.4-9.5 5.4-13.2 2.7-3.5 6.2-6.3 10.1-8.4 3.8-2 8.1-3.4 12.6-4.2 3.2-0.5 6.5-0.8 9.6-0.8q1.7 0 3.3 0.1c4.3 0.3 8.4 1.1 12.1 2.5 4 1.5 7.2 3.6 9.7 6.3 1.7 1.9 1.8 4.9 0.2 6.9l-13.3 16.9c-0.8 1.1-2.2 1.8-3.6 2q-0.3 0-0.6 0c-1.2 0-2.4-0.4-3.4-1.2q-2.4-1.9-5.2-3.2-2.6-1.2-4.9-1.5-0.6-0.1-1.2-0.1-0.8 0-1.5 0.2c0.2 0.5 1.3 2.5 6.5 5.8q3.8 2.4 7.2 4.8c2.7 1.8 5 3.8 6.9 6 2.1 2.4 3.6 5.1 4.5 8.2 1.1 3.2 1.1 7 0.2 11q0 0.1 0 0.2c-1.3 5.2-3.6 9.7-7 13.4-3.2 3.6-6.9 6.4-11 8.5-4 2.1-8.4 3.5-13 4.2-2.8 0.5-5.6 0.7-8.3 0.7z"/>
			<path id="&lt;Compound Path&gt;" class="s19" d="m1392.1 334.5q-3.6-2.3-6.5-4.7-3-2.4-5.1-5.3-2.1-2.8-3.1-6.5-0.9-3.6-0.4-8.3 0.8-6.1 4.3-10.5 3.4-4.4 8.4-7 5-2.6 11-3.7 5.9-1 11.7-0.6 5.7 0.3 10.5 2.1 4.8 1.8 7.6 4.9l-13.3 16.9q-2.9-2.4-6.3-4-3.4-1.5-6.5-1.9-3.2-0.4-5.5 0.5-2.4 0.8-3.1 3.3-1.8 5.1 8.8 12 3.7 2.3 7.1 4.6 3.5 2.4 5.8 5.1 2.4 2.8 3.5 6.3 1.1 3.6 0.1 8.3-1.6 6.5-5.8 11.1-4.1 4.6-9.4 7.4-5.4 2.7-11.4 3.6-6.1 1-11.6 0.4-5.4-0.5-9.7-2.5-4.3-2-6.1-5.4l11.3-15.5q2.9 2.4 6.1 3.7 3.2 1.4 6.1 1.8 2.9 0.5 5.2 0 2.3-0.5 3.6-1.8 2.4-2.6 0.9-6.4-1.5-3.8-8.2-7.9z"/>
		</g>
		<g id="&lt;Group&gt;">
			<g id="&lt;Group&gt;">
				<path id="&lt;Path&gt;" class="s4" d="m1431.7 450.3c-1.4 0-2.8-0.6-3.8-1.7-1.2-1.2-1.7-2.9-1.5-4.5l11.7-76.5c0.4-2.4 2.4-4.3 4.9-4.5l22.1-2q0.2 0 0.5 0c1.5 0 2.9 0.6 3.9 1.8 1.2 1.2 1.6 2.9 1.3 4.6l-3.6 19.6 1.9-1.3 3.9-20.6c0.5-2.3 2.4-4 4.7-4.3l20.5-2.4q0.3 0 0.7 0c1.4 0 2.9 0.6 3.9 1.7 1.1 1.3 1.6 3 1.3 4.7l-13.7 74c-0.5 2.4-2.5 4.2-5 4.4l-20.8 1.3q-0.1 0-0.3 0c-1.5 0-3-0.6-4-1.8-1.1-1.3-1.6-2.9-1.3-4.6l2.9-14.7-1.4 1.1-3.4 19.1c-0.5 2.3-2.4 4.1-4.7 4.4l-20.1 2.1q-0.3 0.1-0.6 0.1z"/>
			</g>
			<g id="&lt;Group&gt;">
				<path id="&lt;Compound Path&gt;" class="s20" d="m1501.2 361.5l-13.7 74-20.8 1.4 5.5-28.6-14.2 10.9-3.8 21.2-20.1 2.1 11.7-76.4 22.1-2-5.9 32.2 14.3-9.7 4.4-22.7z"/>
			</g>
		</g>
	</g>
</svg>